/* XPM */
static char *Pixmap[] = {
"32 32 256 3",
"000 c black",
"001 c #010101",
"002 c #020202",
"003 c Gray1",
"004 c #040404",
"005 c Gray2",
"006 c #060606",
"007 c #070707",
"008 c Gray3",
"009 c #090909",
"010 c Gray4",
"011 c #0B0B0B",
"012 c #0C0C0C",
"013 c Gray5",
"014 c #0E0E0E",
"015 c Gray6",
"016 c #101010",
"017 c #111111",
"018 c Gray7",
"019 c #131313",
"020 c Gray8",
"021 c #151515",
"022 c #161616",
"023 c Gray9",
"024 c #181818",
"025 c #191919",
"026 c Gray10",
"027 c #1B1B1B",
"028 c Gray11",
"029 c #1D1D1D",
"030 c #202020",
"031 c Gray13",
"032 c #222222",
"033 c #232323",
"034 c Gray14",
"035 c #252525",
"036 c #272727",
"037 c #282828",
"038 c Gray16",
"039 c #2D2D2D",
"040 c #2F2F2F",
"041 c #313131",
"042 c #343434",
"043 c #353535",
"044 c Gray21",
"045 c Gray22",
"046 c #3C3C3C",
"047 c #3E3E3E",
"048 c Gray25",
"049 c Gray26",
"050 c #434343",
"051 c #444444",
"052 c Gray27",
"053 c Gray28",
"054 c #494949",
"055 c Gray29",
"056 c #4C4C4C",
"057 c Gray30",
"058 c #4E4E4E",
"059 c Gray31",
"060 c Gray32",
"061 c dimgray",
"062 c #555555",
"063 c Gray34",
"064 c #5A5A5A",
"065 c #5B5B5B",
"066 c #5D5D5D",
"067 c Gray37",
"068 c #606060",
"069 c #626262",
"070 c Gray39",
"071 c Gray40",
"072 c #676767",
"073 c #686868",
"074 c Gray42",
"075 c #6C6C6C",
"076 c Gray43",
"077 c Gray44",
"078 c #727272",
"079 c #767676",
"080 c Gray47",
"081 c #797979",
"082 c #7C7C7C",
"083 c Gray49",
"084 c Gray",
"085 c #818181",
"086 c Gray51",
"087 c Gray52",
"088 c #868686",
"089 c #898989",
"090 c Gray54",
"091 c #8B8B8B",
"092 c #8D8D8D",
"093 c #8E8E8E",
"094 c #909090",
"095 c #929292",
"096 c #939393",
"097 c Gray58",
"098 c #959595",
"099 c #979797",
"100 c #989898",
"101 c Gray60",
"102 c #9A9A9A",
"103 c Gray61",
"104 c #9F9F9F",
"105 c Gray63",
"106 c #A2A2A2",
"107 c Gray64",
"108 c #A4A4A4",
"109 c #A5A5A5",
"110 c #A7A7A7",
"111 c Gray66",
"112 c Gray68",
"113 c #AEAEAE",
"114 c #AFAFAF",
"115 c Gray69",
"116 c #B1B1B1",
"117 c Gray71",
"118 c #B7B7B7",
"119 c Gray72",
"120 c #B9B9B9",
"121 c Gray73",
"122 c #BBBBBB",
"123 c Gray75",
"124 c #C0C0C0",
"125 c #C1C1C1",
"126 c Gray76",
"127 c #C3C3C3",
"128 c Gray77",
"129 c #C5C5C5",
"130 c #C6C6C6",
"131 c Gray78",
"132 c #C8C8C8",
"133 c #CBCBCB",
"134 c #CDCDCD",
"135 c Gray81",
"136 c Gray82",
"137 c #D3D3D3",
"138 c Gray83",
"139 c #D5D5D5",
"140 c Gray84",
"141 c #D7D7D7",
"142 c Gray85",
"143 c #DADADA",
"144 c Gray86",
"145 c gainsboro",
"146 c #DDDDDD",
"147 c Gray87",
"148 c #DFDFDF",
"149 c Gray88",
"150 c #E2E2E2",
"151 c Gray89",
"152 c #E4E4E4",
"153 c Gray90",
"154 c #E6E6E6",
"155 c #E7E7E7",
"156 c Gray91",
"157 c #E9E9E9",
"158 c #EAEAEA",
"159 c Gray92",
"160 c #EFEFEF",
"161 c Gray94",
"162 c #F1F1F1",
"163 c Gray95",
"164 c Gray96",
"165 c #F6F6F6",
"166 c Gray97",
"167 c #F8F8F8",
"168 c #F9F9F9",
"169 c Gray98",
"170 c #FBFBFB",
"171 c Gray99",
"172 c #FDFDFD",
"173 c #FEFEFE",
"174 c Gray100",
"175 c black",
"176 c black",
"177 c black",
"178 c black",
"179 c black",
"180 c black",
"181 c black",
"182 c black",
"183 c black",
"184 c black",
"185 c black",
"186 c black",
"187 c black",
"188 c black",
"189 c black",
"190 c black",
"191 c black",
"192 c black",
"193 c black",
"194 c black",
"195 c black",
"196 c black",
"197 c black",
"198 c black",
"199 c black",
"200 c black",
"201 c black",
"202 c black",
"203 c black",
"204 c black",
"205 c black",
"206 c black",
"207 c black",
"208 c black",
"209 c black",
"210 c black",
"211 c black",
"212 c black",
"213 c black",
"214 c black",
"215 c black",
"216 c black",
"217 c black",
"218 c black",
"219 c black",
"220 c black",
"221 c black",
"222 c black",
"223 c black",
"224 c black",
"225 c black",
"226 c black",
"227 c black",
"228 c black",
"229 c black",
"230 c black",
"231 c black",
"232 c black",
"233 c black",
"234 c black",
"235 c black",
"236 c black",
"237 c black",
"238 c black",
"239 c black",
"240 c black",
"241 c black",
"242 c black",
"243 c black",
"244 c black",
"245 c black",
"246 c black",
"247 c black",
"248 c black",
"249 c black",
"250 c black",
"251 c black",
"252 c black",
"253 c black",
"254 c black",
"255 c black",
"174174174174174174174174174174174173174174155135146164174174173174174174174174174174174174174174",
"174174174174174174174174174174174170173173119071093144171173172174174174174174174174174174174174",
"174174174174174174174174173173173171174173086004035120174173171173173173174174174174174174174174",
"174174174174174174174174174172171174174149067000000095170174172172174174174174174174174174174174",
"174174174174174174174174174172168172166096037000000060125171172170174174174174174174174174174174",
"174174174174174174174173173173169174152054008003003024081170174168173173173174174174174174174174",
"174174174174174174174174172174172169115029000004002000048147172169172172174174174174174174174174",
"174174174174174174174174171173172137068009000003002000028097158172172172174174174174174174174174",
"174174174174174173173173173173174107024002003001000002006048134174171172173173173174174174174174",
"174174174174174174174171173174154074000000004000000002000012104167172173172174174174174174174174",
"174174174174174174174169173171103040000000002000000004000000067133173173171174174174174174174174",
"174174174174173173173169174160062008003000000000000002000000022089174174168173173173174174174174",
"174174174174174172172171166122037000003000000000000000000000000059153171169172172174174174174174",
"174174173173173172171174144071016000001000000000000000000000000036103162174170172173173173174174",
"174174173173173172171174118027001003006015012023027019018015000005053142174168172173173173174174",
"174174174174171173172154082000000014027091132112129140106035008000018113166169173172174174174174",
"174173173173169174174109044001000020114174092022035110131073019000003073139174174170173173173174",
"174173173173169174167072005000000027149174076012007004012017011000000027101174173168173173173174",
"174174172172170166126044000000000016076150160114056015007004000001000000069155171170172172174174",
"173173173170174153075021002000000000014028061103148138082034012001000001040109168174170172173173",
"173173173169174127036000002000000000000002001009032121174129023000000000002060154173167172173173",
"174171173169155090006000004000000008018027016008010074174145026000000004000028120167170173172174",
"173170174174117047002000002000000025081159129043033122168088017000000004001008076146174174171173",
"173170173173080000000000000000000009017058108124115098050019002000000001000000033111174173170173",
"171172168132052000000001000000000000001015017012014017014000000000000000002000002078159172172171",
"168174161079026003000001000000000000000000001001001000000000000000000000002000000045116174174167",
"169173137041000003000000000000000000000000000000000000000000000000000000000000000011069163174165",
"170157099016000007004005005005003002001000000000000000000001003004005005004004006000037128171170",
"174129051006000000000000000000000000000005008010010007004000000000000000000000000000013080159174",
"164085000000003009014019024034042049058063065067067064062055046039030021017012006000000031119170",
"121046000010045065084102115130141151157159159159159159159156147136123111094078057038000000083146",
"105070077100120133149160171174174174174174174174174174174174174174174167158143128116087066088117"
};
