/* XPM */
static char *Pixmap[] = {
"16 16 256 3",
"000 c black",
"001 c #010101",
"002 c #020202",
"003 c #0C0C0C",
"004 c #222222",
"005 c #252525",
"006 c Gray17",
"007 c #353535",
"008 c #393939",
"009 c Gray24",
"010 c Gray25",
"011 c #464646",
"012 c #565656",
"013 c Gray36",
"014 c #626262",
"015 c #6F6F6F",
"016 c #727272",
"017 c #747474",
"018 c #777777",
"019 c Gray47",
"020 c #808080",
"021 c #838383",
"022 c #848484",
"023 c Gray52",
"024 c Gray53",
"025 c Gray54",
"026 c #8B8B8B",
"027 c #909090",
"028 c #929292",
"029 c #939393",
"030 c Gray60",
"031 c #A0A0A0",
"032 c #A5A5A5",
"033 c Gray68",
"034 c #AFAFAF",
"035 c #B4B4B4",
"036 c Gray73",
"037 c #BCBCBC",
"038 c #BEBEBE",
"039 c Gray75",
"040 c #C0C0C0",
"041 c Gray80",
"042 c #CECECE",
"043 c #D2D2D2",
"044 c #D5D5D5",
"045 c Gray84",
"046 c #D7D7D7",
"047 c gainsboro",
"048 c Gray87",
"049 c #E2E2E2",
"050 c #E7E7E7",
"051 c Gray91",
"052 c #ECECEC",
"053 c Gray93",
"054 c #EEEEEE",
"055 c #F1F1F1",
"056 c #F4F4F4",
"057 c #F6F6F6",
"058 c Gray97",
"059 c #F8F8F8",
"060 c #F9F9F9",
"061 c Gray98",
"062 c Gray99",
"063 c #FDFDFD",
"064 c #FEFEFE",
"065 c Gray100",
"066 c black",
"067 c black",
"068 c black",
"069 c black",
"070 c black",
"071 c black",
"072 c black",
"073 c black",
"074 c black",
"075 c black",
"076 c black",
"077 c black",
"078 c black",
"079 c black",
"080 c black",
"081 c black",
"082 c black",
"083 c black",
"084 c black",
"085 c black",
"086 c black",
"087 c black",
"088 c black",
"089 c black",
"090 c black",
"091 c black",
"092 c black",
"093 c black",
"094 c black",
"095 c black",
"096 c black",
"097 c black",
"098 c black",
"099 c black",
"100 c black",
"101 c black",
"102 c black",
"103 c black",
"104 c black",
"105 c black",
"106 c black",
"107 c black",
"108 c black",
"109 c black",
"110 c black",
"111 c black",
"112 c black",
"113 c black",
"114 c black",
"115 c black",
"116 c black",
"117 c black",
"118 c black",
"119 c black",
"120 c black",
"121 c black",
"122 c black",
"123 c black",
"124 c black",
"125 c black",
"126 c black",
"127 c black",
"128 c black",
"129 c black",
"130 c black",
"131 c black",
"132 c black",
"133 c black",
"134 c black",
"135 c black",
"136 c black",
"137 c black",
"138 c black",
"139 c black",
"140 c black",
"141 c black",
"142 c black",
"143 c black",
"144 c black",
"145 c black",
"146 c black",
"147 c black",
"148 c black",
"149 c black",
"150 c black",
"151 c black",
"152 c black",
"153 c black",
"154 c black",
"155 c black",
"156 c black",
"157 c black",
"158 c black",
"159 c black",
"160 c black",
"161 c black",
"162 c black",
"163 c black",
"164 c black",
"165 c black",
"166 c black",
"167 c black",
"168 c black",
"169 c black",
"170 c black",
"171 c black",
"172 c black",
"173 c black",
"174 c black",
"175 c black",
"176 c black",
"177 c black",
"178 c black",
"179 c black",
"180 c black",
"181 c black",
"182 c black",
"183 c black",
"184 c black",
"185 c black",
"186 c black",
"187 c black",
"188 c black",
"189 c black",
"190 c black",
"191 c black",
"192 c black",
"193 c black",
"194 c black",
"195 c black",
"196 c black",
"197 c black",
"198 c black",
"199 c black",
"200 c black",
"201 c black",
"202 c black",
"203 c black",
"204 c black",
"205 c black",
"206 c black",
"207 c black",
"208 c black",
"209 c black",
"210 c black",
"211 c black",
"212 c black",
"213 c black",
"214 c black",
"215 c black",
"216 c black",
"217 c black",
"218 c black",
"219 c black",
"220 c black",
"221 c black",
"222 c black",
"223 c black",
"224 c black",
"225 c black",
"226 c black",
"227 c black",
"228 c black",
"229 c black",
"230 c black",
"231 c black",
"232 c black",
"233 c black",
"234 c black",
"235 c black",
"236 c black",
"237 c black",
"238 c black",
"239 c black",
"240 c black",
"241 c black",
"242 c black",
"243 c black",
"244 c black",
"245 c black",
"246 c black",
"247 c black",
"248 c black",
"249 c black",
"250 c black",
"251 c black",
"252 c black",
"253 c black",
"254 c black",
"255 c black",
"065065065065065065064032038065065065065065065065",
"065065065065064065052010015058065065065065065065",
"065065065065064065035000000041065064065065065065",
"065065065065065053013000000020057065065065065065",
"065065065064065037000000000000043065065065065065",
"065065065064056014000000000000022062063065065065",
"065065064065039000000000000000004045065064065065",
"065065065056016000001000000000000029061064065065",
"065064065041000000000000000000000005048065064065",
"065065057018000000000000000000000000030063063065",
"064065042002000000000000000000000000008049065065",
"064062021000000000000000000000000000000031065064",
"065044003000000000000000000000000000000011051065",
"061027000000000000000000000000000000000000034065",
"044000000007013019024026025023017012006000009050",
"033028040047055060062062062062059054046036025039"
};
